<svg xmlns="http://www.w3.org/2000/svg" width="352" height="480" viewBox="0 0 352 480"><g transform="translate(-73 -16)"><path d="M121,16a48,48,0,1,0,48,48,48,48,0,0,0-48-48Zm0,64a16,16,0,1,1,16-16,16,16,0,0,1-16,16Z" fill="#f2f2f2"/><path d="M249,16a48,48,0,1,0,48,48,48,48,0,0,0-48-48Zm0,64a16,16,0,1,1,16-16,16,16,0,0,1-16,16Z" fill="#f2f2f2"/><path d="M377,112a48,48,0,1,0-48-48,48,48,0,0,0,48,48Zm0-64a16,16,0,1,1-16,16A16,16,0,0,1,377,48Z" fill="#f2f2f2"/><path d="M121,144a48,48,0,1,0,48,48,48,48,0,0,0-48-48Zm0,64a16,16,0,1,1,16-16,16,16,0,0,1-16,16Z" fill="#f2f2f2"/><path d="M249,144a48,48,0,1,0,48,48,48,48,0,0,0-48-48Zm0,64a16,16,0,1,1,16-16,16,16,0,0,1-16,16Z" fill="#f2f2f2"/><path d="M377,144a48,48,0,1,0,48,48,48,48,0,0,0-48-48Zm0,64a16,16,0,1,1,16-16,16,16,0,0,1-16,16Z" fill="#f2f2f2"/><path d="M121,272a48,48,0,1,0,48,48A48,48,0,0,0,121,272Zm0,64a16,16,0,1,1,16-16A16,16,0,0,1,121,336Z" fill="#f2f2f2"/><path d="M249,272a48,48,0,1,0,48,48A48,48,0,0,0,249,272Zm0,64a16,16,0,1,1,16-16A16,16,0,0,1,249,336Z" fill="#f2f2f2"/><path d="M377,272a48,48,0,1,0,48,48A48,48,0,0,0,377,272Zm0,64a16,16,0,1,1,16-16,16,16,0,0,1-16,16Z" fill="#f2f2f2"/><path d="M249,400a48,48,0,1,0,48,48A48,48,0,0,0,249,400Zm0,64a16,16,0,1,1,16-16,16,16,0,0,1-16,16Z" fill="#f2f2f2"/></g></svg>